<svg width="130" height="48" viewBox="0 0 130 48" fill="none" xmlns="http://www.w3.org/2000/svg">
<g id="logo">
<path d="M50.9453 7.34375L51.25 8.14062C49.5312 8.9375 47.5781 9.75781 45.3906 10.6016L44.7812 10.8359C44.875 10.2891 44.9688 9.625 45.0625 8.84375C45.1406 8.21875 45.2109 7.66406 45.2734 7.17969C45.3672 6.50781 45.4141 5.96094 45.4141 5.53906C45.4141 4.58594 44.9609 4.10938 44.0547 4.10938C42.5859 4.10938 40.8516 4.75781 38.8516 6.05469C36.1641 7.78906 34.8203 9.79688 34.8203 12.0781C34.8203 12.9062 35.1719 13.4531 35.875 13.7188C36.5938 13.9688 38.1172 14.0938 40.4453 14.0938H40.75C40.7969 13.5938 40.8203 13.25 40.8203 13.0625C40.8203 11.7344 40.6328 10.5703 40.2578 9.57031C41.8203 9.94531 42.6016 11.3203 42.6016 13.6953V14.0938L46.2812 14.0234C47.9844 14.0234 49.1875 14.1484 49.8906 14.3984C52.2188 15.2266 53.3828 16.9297 53.3828 19.5078C53.3828 22.9766 52.0859 26.3047 49.4922 29.4922C46.3984 33.2891 42.625 35.1875 38.1719 35.1875C34.9062 35.1875 32.4219 33.8672 30.7188 31.2266C26.8438 33.6641 22.7422 34.8828 18.4141 34.8828C15.0859 34.8828 12.0547 34.1328 9.32031 32.6328C3.99219 29.6953 1.32812 24.6797 1.32812 17.5859C1.32812 13.0859 2.52344 9.39844 4.91406 6.52344C7.30469 3.64844 10.3594 2.21094 14.0781 2.21094C17.6875 2.21094 20.7969 3.375 23.4062 5.70312C24.8594 6.98438 26.0312 8.55469 26.9219 10.4141C27.8125 12.2578 28.8281 15.2109 29.9688 19.2734L31.1406 23.4922C31.7812 25.7734 32.3594 27.5 32.875 28.6719C34.4219 27.75 35.9688 26.0781 37.5156 23.6562C39.0781 21.2344 40.0391 19 40.3984 16.9531L39.3203 16.9766C36.7109 16.9766 34.8672 16.7656 33.7891 16.3438C32.7266 15.9062 32.1953 15.1562 32.1953 14.0938C32.1953 12.375 33.1406 10.4141 35.0312 8.21094C36.5469 6.44531 38.3359 5.0625 40.3984 4.0625C42.4609 3.04688 45.125 2.25781 48.3906 1.69531L49.1875 1.55469L49.1172 1.92969C48.9609 2.63281 48.8359 3.25781 48.7422 3.80469L48.3672 6.00781C48.2578 6.71094 48.2031 7.16406 48.2031 7.36719C48.2031 7.82031 48.3906 8.04688 48.7656 8.04688C49.0312 8.04688 49.3047 7.99219 49.5859 7.88281C50.2109 7.63281 50.6641 7.45312 50.9453 7.34375ZM42.1797 16.9062C41.6641 19.0938 40.5625 21.3828 38.875 23.7734C37.1875 26.1641 35.3125 28.0938 33.25 29.5625C34.0156 31.2031 34.8594 32.3594 35.7812 33.0312C36.7031 33.6875 37.9062 34.0156 39.3906 34.0156C42.4062 34.0156 45.0703 32.7734 47.3828 30.2891C49.7109 27.8047 50.875 24.9531 50.875 21.7344C50.875 19.9219 50.3672 18.6719 49.3516 17.9844C48.3516 17.2812 46.5469 16.9297 43.9375 16.9297H42.7656L42.1797 16.9062ZM30.3203 30.3828C29.5703 28.7266 29.0156 27.2422 28.6562 25.9297L26.7812 19.0391C25.2969 13.5547 23.5078 9.57812 21.4141 7.10938C19.3203 4.625 16.7109 3.38281 13.5859 3.38281C10.3203 3.38281 7.76562 4.47656 5.92188 6.66406C4.09375 8.85156 3.17969 11.8828 3.17969 15.7578C3.17969 17.7734 3.54688 19.8125 4.28125 21.875C5.03125 23.9375 6.03906 25.7266 7.30469 27.2422C8.89844 29.1484 10.8281 30.6328 13.0938 31.6953C15.3594 32.7578 17.7344 33.2891 20.2188 33.2891C23.5469 33.2891 26.9141 32.3203 30.3203 30.3828ZM62.1602 15.3711L60.9883 18.8281C64.3216 18.8281 65.9883 20.1432 65.9883 22.7734C65.9883 24.2448 65.6172 25.7943 64.875 27.4219C64.1458 29.0495 63.1693 30.4883 61.9453 31.7383C60.2005 33.5091 58.6706 34.3945 57.3555 34.3945C56.5612 34.3945 56.1641 34.0625 56.1641 33.3984C56.1641 33.112 56.2487 32.8125 56.418 32.5C57.082 32.9297 57.6484 33.1445 58.1172 33.1445C59.3281 33.1445 60.4674 32.4609 61.5352 31.0938C62.2773 30.1432 62.9023 29.0104 63.4102 27.6953C63.918 26.3802 64.1719 25.2279 64.1719 24.2383C64.1719 21.9727 62.8568 20.8398 60.2266 20.8398L60.0312 21.3281C58.2604 25.9896 57.1081 28.9974 56.5742 30.3516L51.2227 44.0039L50.8906 44.8828C50.2656 45.1562 49.6146 45.3711 48.9375 45.5273L48.6055 45.625L48.8594 45.0195C50.4349 41.4258 52.7331 35.3451 55.7539 26.7773L55.9297 26.25L56.1445 26.2109C56.8346 26.0417 57.3359 25.7292 57.6484 25.2734C57.9609 24.8047 58.5013 23.5807 59.2695 21.6016L59.5625 20.8398L59.0547 20.8203C58.0391 20.8203 57.082 20.8854 56.1836 21.0156L55.1289 23.7109L54.582 23.4766L56.2617 19.043L56.5938 19.0039L58.1953 18.9062L59.9922 18.8281C60.0312 18.8281 60.1354 18.8216 60.3047 18.8086L61.5156 15.3711H62.1602ZM77.1406 8.14453C77.1406 9.73307 76.0859 12.9167 73.9766 17.6953C70.3177 26.0156 68.4557 30.8464 68.3906 32.1875C68.3646 32.7734 68.599 33.0534 69.0938 33.0273C69.4714 33.0143 70.1419 32.6302 71.1055 31.875L71.3398 31.6992L71.7109 32.207C69.6146 34.043 68.0781 34.9609 67.1016 34.9609C66.3203 34.9609 65.9297 34.4141 65.9297 33.3203C65.9297 32.474 66.1966 31.2891 66.7305 29.7656C67.2773 28.2422 68.5729 25.0326 70.6172 20.1367L72.4727 15.6836C73.5924 13.0143 74.1523 11.4583 74.1523 11.0156C74.1523 10.6641 73.9505 10.4883 73.5469 10.4883C73.4036 10.4883 73.0586 10.5729 72.5117 10.7422C72.4466 10.7682 72.349 10.8008 72.2188 10.8398L72.0234 10.2734L72.3164 10.1562C74.569 9.29688 76.1771 8.6263 77.1406 8.14453ZM85.3047 32.0117L85.6562 32.5195C84.2891 33.5482 82.4206 34.3555 80.0508 34.9414C80.1159 33.6263 80.8906 31.3607 82.375 28.1445C80.6953 30.1237 78.9635 31.7643 77.1797 33.0664C75.4089 34.3685 74.0026 35.0195 72.9609 35.0195C72.0495 35.0195 71.5938 34.4401 71.5938 33.2812C71.5938 31.3151 72.4727 29.1927 74.2305 26.9141C75.9883 24.6224 78.1953 22.7409 80.8516 21.2695C83.8464 19.5898 86.8281 18.75 89.7969 18.75C90.2135 18.75 90.4219 18.9062 90.4219 19.2188C90.4219 19.4792 90.2266 19.974 89.8359 20.7031C88.9505 20.5469 88.0911 20.4688 87.2578 20.4688C83.2865 20.4688 79.8685 22.0117 77.0039 25.0977C74.8945 27.3633 73.8398 29.6094 73.8398 31.8359C73.8398 32.8776 74.224 33.3984 74.9922 33.3984C75.6432 33.3984 76.5807 32.8385 77.8047 31.7188C79.0286 30.5859 80.1224 29.2773 81.0859 27.793C82.4141 25.7357 83.319 23.6003 83.8008 21.3867C84.3607 21.7253 84.6406 22.3503 84.6406 23.2617C84.6406 24.5247 84.0026 25.9766 82.7266 27.6172C83.3516 27.5651 84.1263 27.3828 85.0508 27.0703L84.8945 27.4023C83.6576 30.1758 83.0391 31.7969 83.0391 32.2656C83.0391 32.6432 83.2148 32.819 83.5664 32.793C83.8919 32.7669 84.4714 32.5065 85.3047 32.0117ZM98.9375 18.8086L98.7227 19.1797L97.7656 20.7812C97.4271 21.3542 97.069 21.9271 96.6914 22.5L96.4766 22.8125L95.9883 22.4805C96.0534 22.3372 96.099 22.2331 96.125 22.168C96.3984 21.6081 96.5352 21.2109 96.5352 20.9766C96.5352 20.4818 96.099 20.2344 95.2266 20.2344C94.4323 20.2344 93.7357 20.5339 93.1367 21.1328C92.5378 21.7188 92.2383 22.4023 92.2383 23.1836C92.2383 23.6003 92.3685 24.0951 92.6289 24.668L93.5664 26.6797C93.8789 27.3568 94.0352 28.099 94.0352 28.9062C94.0352 30.4818 93.1693 31.9727 91.4375 33.3789C89.9401 34.5898 88.612 35.1953 87.4531 35.1953C86.7891 35.1953 86.2422 35.0326 85.8125 34.707C85.3828 34.3685 85.168 33.9388 85.168 33.418C85.168 32.806 85.3242 32.2135 85.6367 31.6406C86.444 33.0208 87.4466 33.7109 88.6445 33.7109C89.5951 33.7109 90.4349 33.3854 91.1641 32.7344C91.8932 32.0833 92.2578 31.3281 92.2578 30.4688C92.2578 30.013 92.1276 29.4922 91.8672 28.9062L90.7148 26.3867C90.4935 25.8919 90.3828 25.3451 90.3828 24.7461C90.3828 23.6654 90.9818 22.4544 92.1797 21.1133C92.987 20.2279 93.7878 19.6094 94.582 19.2578C95.3893 18.8932 96.3984 18.7109 97.6094 18.7109C98.0781 18.7109 98.5208 18.7435 98.9375 18.8086ZM109.426 32.2266L109.777 32.7344C108.501 33.4245 106.848 34.1341 104.816 34.8633L104.328 35.0391C104.471 33.0078 105.878 29.1406 108.547 23.4375C108.964 22.5521 109.172 21.9531 109.172 21.6406C109.172 21.237 109.022 21.0352 108.723 21.0352C108.384 21.0352 107.785 21.3737 106.926 22.0508C106.066 22.7279 105.233 23.5221 104.426 24.4336C103.202 25.7878 101.978 27.3828 100.754 29.2188C99.543 31.0417 98.6445 32.6302 98.0586 33.9844C97.1471 34.1016 96.3008 34.362 95.5195 34.7656L95.7344 34.2578C96.6198 32.1875 97.4401 30.1888 98.1953 28.2617L100.48 22.4414L102.805 16.6406C103.924 13.7891 104.484 12.0312 104.484 11.3672C104.484 10.9115 104.276 10.6836 103.859 10.6836C103.664 10.6836 103.28 10.7812 102.707 10.9766L102.453 11.0742L102.258 10.5078C103.807 9.98698 105.363 9.30339 106.926 8.45703L107.297 8.24219C107.31 8.48958 107.316 8.67188 107.316 8.78906C107.316 9.7526 106.991 11.1784 106.34 13.0664C105.689 14.9414 104.387 18.2227 102.434 22.9102L100.324 28.0078L100.09 28.5547L100.422 28.1445C105.409 21.9727 108.97 18.8867 111.105 18.8867C111.73 18.8867 112.043 19.1992 112.043 19.8242C112.043 20.2799 111.809 21.0221 111.34 22.0508L110.129 24.7266C108.085 29.2318 107.062 31.8424 107.062 32.5586C107.062 32.8451 107.212 32.9883 107.512 32.9883C107.863 32.9883 108.443 32.7669 109.25 32.3242L109.426 32.2266ZM117.59 19.1797C117.798 19.7135 117.902 20.3711 117.902 21.1523C117.902 22.7539 117.525 25.0326 116.77 27.9883C118.827 25.2799 120.741 23.1641 122.512 21.6406C124.296 20.1042 125.721 19.3359 126.789 19.3359C127.544 19.3359 127.922 19.9674 127.922 21.2305C127.922 24.4336 126.047 28.0339 122.297 32.0312C120.591 33.8542 118.99 35.1953 117.492 36.0547C115.995 36.9141 114.27 37.4935 112.316 37.793C110.637 38.0534 109.426 38.444 108.684 38.9648C107.941 39.4857 107.57 40.2083 107.57 41.1328C107.57 41.8359 107.928 42.4023 108.645 42.832C109.348 43.2747 110.266 43.4961 111.398 43.4961C112.792 43.4961 114.068 43.151 115.227 42.4609C114.927 44.0885 113.658 44.9023 111.418 44.9023C110.077 44.9023 108.983 44.5833 108.137 43.9453C107.29 43.3073 106.867 42.4805 106.867 41.4648C106.867 40.1888 107.499 38.8477 108.762 37.4414C109.374 36.7773 110.031 36.3216 110.734 36.0742C111.424 35.8268 112.727 35.6055 114.641 35.4102C116.372 35.2279 117.759 34.8047 118.801 34.1406C120.48 33.0729 121.913 31.6732 123.098 29.9414C123.788 28.9388 124.367 27.819 124.836 26.582C125.305 25.332 125.539 24.2839 125.539 23.4375C125.539 22.3698 125.181 21.8359 124.465 21.8359C123.254 21.8359 121.574 23.1315 119.426 25.7227C117.277 28.3138 115.428 31.2826 113.879 34.6289L113.703 35H113.02L113.215 34.2578C114.699 29.0365 115.441 25.2669 115.441 22.9492C115.441 22.1289 115.174 21.7188 114.641 21.7188C114.419 21.7188 114.12 21.7904 113.742 21.9336C113.677 21.9596 113.586 21.9922 113.469 22.0312L113.293 21.4453C113.449 21.3672 113.547 21.3151 113.586 21.2891L115.422 20.3906L117.297 19.3555C117.336 19.3294 117.434 19.2708 117.59 19.1797ZM127.707 32.7734C128.306 32.7734 128.605 33.0729 128.605 33.6719C128.605 34.0104 128.469 34.3164 128.195 34.5898C127.935 34.8633 127.635 35 127.297 35C126.685 35 126.379 34.7005 126.379 34.1016C126.379 33.75 126.509 33.444 126.77 33.1836C127.043 32.9102 127.355 32.7734 127.707 32.7734Z" fill="#25313C"/>
<path d="M50.9453 7.34375L51.8794 6.98661L51.5202 6.04723L50.5829 6.41175L50.9453 7.34375ZM51.25 8.14062L51.6706 9.04786L52.5174 8.65527L52.1841 7.78349L51.25 8.14062ZM45.3906 10.6016L45.7496 11.5349L45.7505 11.5346L45.3906 10.6016ZM44.7812 10.8359L43.7956 10.667L43.4984 12.4008L45.1402 11.7693L44.7812 10.8359ZM45.0625 8.84375L44.0702 8.71971L44.0696 8.7246L45.0625 8.84375ZM45.2734 7.17969L44.283 7.04148L44.2817 7.05172L45.2734 7.17969ZM38.8516 6.05469L39.3938 6.89491L39.3956 6.89373L38.8516 6.05469ZM35.875 13.7188L35.5216 14.6542L35.534 14.6589L35.5465 14.6632L35.875 13.7188ZM40.75 14.0938V15.0938H41.6606L41.7456 14.1871L40.75 14.0938ZM40.2578 9.57031L40.4912 8.59793L38.6604 8.15854L39.3215 9.92144L40.2578 9.57031ZM42.6016 14.0938H41.6016V15.113L42.6207 15.0936L42.6016 14.0938ZM46.2812 14.0234V13.0234H46.2717L46.2621 13.0236L46.2812 14.0234ZM49.8906 14.3984L50.2258 13.4563L50.2256 13.4562L49.8906 14.3984ZM49.4922 29.4922L50.2674 30.1239L50.2678 30.1234L49.4922 29.4922ZM30.7188 31.2266L31.5591 30.6845L31.0232 29.8537L30.1863 30.3801L30.7188 31.2266ZM9.32031 32.6328L8.83751 33.5085L8.83936 33.5096L9.32031 32.6328ZM23.4062 5.70312L22.7405 6.44931L22.7449 6.4532L23.4062 5.70312ZM26.9219 10.4141L26.02 10.8461L26.0214 10.849L26.9219 10.4141ZM29.9688 19.2734L30.9323 19.0058L30.9315 19.0031L29.9688 19.2734ZM31.1406 23.4922L30.1771 23.7598L30.1779 23.7626L31.1406 23.4922ZM32.875 28.6719L31.9597 29.0746L32.4152 30.11L33.3869 29.5309L32.875 28.6719ZM37.5156 23.6562L36.6753 23.1141L36.6729 23.118L37.5156 23.6562ZM40.3984 16.9531L41.3834 17.1261L41.5939 15.9269L40.3767 15.9534L40.3984 16.9531ZM39.3203 16.9766V17.9766H39.3312L39.342 17.9763L39.3203 16.9766ZM33.7891 16.3438L33.4083 17.2684L33.4165 17.2718L33.4247 17.275L33.7891 16.3438ZM35.0312 8.21094L34.2725 7.55959L34.2724 7.5597L35.0312 8.21094ZM40.3984 4.0625L40.8347 4.96233L40.8402 4.95963L40.3984 4.0625ZM48.3906 1.69531L48.5604 2.68081L48.5644 2.6801L48.3906 1.69531ZM49.1875 1.55469L50.1704 1.73898L50.4367 0.318797L49.0137 0.569904L49.1875 1.55469ZM49.1172 1.92969L50.0934 2.14662L50.097 2.13035L50.1001 2.11398L49.1172 1.92969ZM48.7422 3.80469L47.7566 3.63572L47.7564 3.63689L48.7422 3.80469ZM48.3672 6.00781L47.3814 5.84001L47.3802 5.84705L47.3791 5.85411L48.3672 6.00781ZM49.5859 7.88281L49.9484 8.81486L49.9573 8.81129L49.5859 7.88281ZM42.1797 16.9062L42.2197 15.907L41.3956 15.8741L41.2064 16.6768L42.1797 16.9062ZM33.25 29.5625L32.6699 28.7479L31.9917 29.2309L32.3438 29.9854L33.25 29.5625ZM35.7812 33.0312L35.1922 33.8394L35.2013 33.8459L35.7812 33.0312ZM47.3828 30.2891L46.6531 29.6053L46.6508 29.6077L47.3828 30.2891ZM49.3516 17.9844L48.7764 18.8024L48.7836 18.8075L48.791 18.8125L49.3516 17.9844ZM42.7656 16.9297L42.7257 17.9289L42.7456 17.9297H42.7656V16.9297ZM30.3203 30.3828L30.8147 31.252L31.6075 30.8011L31.2313 29.9703L30.3203 30.3828ZM28.6562 25.9297L27.6913 26.1922L27.6918 26.1938L28.6562 25.9297ZM26.7812 19.0391L25.816 19.3003L25.8163 19.3016L26.7812 19.0391ZM21.4141 7.10938L20.6494 7.75381L20.6514 7.75618L21.4141 7.10938ZM5.92188 6.66406L5.15724 6.01958L5.15455 6.0228L5.92188 6.66406ZM4.28125 21.875L3.33916 22.2104L3.34146 22.2167L4.28125 21.875ZM7.30469 27.2422L6.53712 27.8832L6.5375 27.8836L7.30469 27.2422ZM50.0113 7.70089L50.3159 8.49776L52.1841 7.78349L51.8794 6.98661L50.0113 7.70089ZM50.8294 7.23339C49.1346 8.01915 47.2023 8.83096 45.0308 9.66856L45.7505 11.5346C47.9539 10.6847 49.9279 9.85585 51.6706 9.04786L50.8294 7.23339ZM45.0316 9.66822L44.4223 9.90259L45.1402 11.7693L45.7496 11.5349L45.0316 9.66822ZM45.7669 11.0049C45.8644 10.4363 45.9604 9.75455 46.0554 8.9629L44.0696 8.7246C43.9771 9.49545 43.8856 10.1419 43.7956 10.667L45.7669 11.0049ZM46.0548 8.96778C46.1328 8.34374 46.2029 7.79041 46.2652 7.30766L44.2817 7.05172C44.219 7.53771 44.1485 8.09376 44.0702 8.71972L46.0548 8.96778ZM46.2638 7.31788C46.3606 6.62414 46.4141 6.02628 46.4141 5.53906H44.4141C44.4141 5.8956 44.3737 6.39148 44.283 7.04149L46.2638 7.31788ZM46.4141 5.53906C46.4141 4.92059 46.2679 4.271 45.7989 3.77774C45.3209 3.27503 44.6752 3.10938 44.0547 3.10938V5.10938C44.3404 5.10938 44.3744 5.182 44.3495 5.15586C44.3336 5.13916 44.4141 5.20441 44.4141 5.53906H46.4141ZM44.0547 3.10938C42.3069 3.10938 40.378 3.87303 38.3075 5.21565L39.3956 6.89373C41.3251 5.6426 42.8649 5.10938 44.0547 5.10938V3.10938ZM38.3093 5.21446C35.462 7.05198 33.8203 9.33085 33.8203 12.0781H35.8203C35.8203 10.2629 36.8661 8.52614 39.3938 6.89491L38.3093 5.21446ZM33.8203 12.0781C33.8203 12.6319 33.9384 13.1766 34.2428 13.6501C34.5521 14.1313 35.0019 14.4579 35.5216 14.6542L36.2284 12.7833C36.045 12.714 35.9674 12.6343 35.9252 12.5686C35.878 12.4953 35.8203 12.3525 35.8203 12.0781H33.8203ZM35.5465 14.6632C36.0306 14.8316 36.6956 14.9327 37.4749 14.9967C38.2739 15.0622 39.2665 15.0938 40.4453 15.0938V13.0938C39.296 13.0938 38.3628 13.0628 37.6384 13.0033C36.8942 12.9423 36.4382 12.8559 36.2035 12.7743L35.5465 14.6632ZM40.4453 15.0938H40.75V13.0938H40.4453V15.0938ZM41.7456 14.1871C41.7922 13.6909 41.8203 13.3031 41.8203 13.0625H39.8203C39.8203 13.1969 39.8016 13.4966 39.7544 14.0004L41.7456 14.1871ZM41.8203 13.0625C41.8203 11.6426 41.6201 10.3551 41.1941 9.21919L39.3215 9.92144C39.6455 10.7855 39.8203 11.8262 39.8203 13.0625H41.8203ZM40.0244 10.5427C40.5415 10.6668 40.8947 10.9343 41.1462 11.3768C41.4188 11.8566 41.6016 12.6007 41.6016 13.6953H43.6016C43.6016 12.4149 43.3937 11.284 42.8851 10.3888C42.3553 9.45635 41.5366 8.84883 40.4912 8.59793L40.0244 10.5427ZM41.6016 13.6953V14.0938H43.6016V13.6953H41.6016ZM42.6207 15.0936L46.3004 15.0233L46.2621 13.0236L42.5825 13.0939L42.6207 15.0936ZM46.2812 15.0234C47.9789 15.0234 49.029 15.1534 49.5556 15.3407L50.2256 13.4562C49.346 13.1435 47.9898 13.0234 46.2812 13.0234V15.0234ZM49.5555 15.3406C50.5606 15.6981 51.2437 16.2167 51.6842 16.8612C52.1271 17.5092 52.3828 18.3696 52.3828 19.5078H54.3828C54.3828 18.0679 54.0565 16.7877 53.3354 15.7326C52.6118 14.674 51.5487 13.9269 50.2258 13.4563L49.5555 15.3406ZM52.3828 19.5078C52.3828 22.7059 51.1931 25.8175 48.7165 28.861L50.2678 30.1234C52.9787 26.7919 54.3828 23.2472 54.3828 19.5078H52.3828ZM48.717 28.8605C45.7916 32.4508 42.2918 34.1875 38.1719 34.1875V36.1875C42.9582 36.1875 47.0053 34.1273 50.2674 30.1239L48.717 28.8605ZM38.1719 34.1875C35.2299 34.1875 33.0695 33.0264 31.5591 30.6845L29.8784 31.7686C31.7742 34.708 34.5826 36.1875 38.1719 36.1875V34.1875ZM30.1863 30.3801C26.4611 32.7233 22.5427 33.8828 18.4141 33.8828V35.8828C22.9417 35.8828 27.2264 34.6048 31.2512 32.073L30.1863 30.3801ZM18.4141 33.8828C15.2424 33.8828 12.3784 33.1698 9.80127 31.7561L8.83936 33.5096C11.731 35.0958 14.9294 35.8828 18.4141 35.8828V33.8828ZM9.80312 31.7571C4.85299 29.028 2.32812 24.388 2.32812 17.5859H0.328125C0.328125 24.9713 3.13139 30.3626 8.83751 33.5085L9.80312 31.7571ZM2.32812 17.5859C2.32812 13.27 3.47052 9.82352 5.68297 7.1628L4.14516 5.88408C1.57635 8.97336 0.328125 12.9019 0.328125 17.5859H2.32812ZM5.68297 7.1628C7.88481 4.51483 10.6584 3.21094 14.0781 3.21094V1.21094C10.0603 1.21094 6.72457 2.78204 4.14516 5.88408L5.68297 7.1628ZM14.0781 3.21094C17.4506 3.21094 20.3207 4.29033 22.7405 6.4493L24.072 4.95695C21.273 2.45967 17.9244 1.21094 14.0781 1.21094V3.21094ZM22.7449 6.4532C24.0909 7.64004 25.1836 9.09989 26.02 10.8461L27.8238 9.98207C26.8789 8.00948 25.6278 6.32871 24.0676 4.95305L22.7449 6.4532ZM26.0214 10.849C26.8717 12.6093 27.8683 15.4916 29.006 19.5438L30.9315 19.0031C29.788 14.9303 28.7533 11.9063 27.8223 9.9791L26.0214 10.849ZM29.0052 19.5411L30.1771 23.7598L32.1041 23.2245L30.9323 19.0058L29.0052 19.5411ZM30.1779 23.7626C30.8224 26.0579 31.4155 27.8379 31.9597 29.0746L33.7903 28.2691C33.3032 27.1621 32.7401 25.489 32.1034 23.2218L30.1779 23.7626ZM33.3869 29.5309C35.1241 28.4956 36.7723 26.6778 38.3584 24.1945L36.6729 23.118C35.1652 25.4785 33.7196 27.0044 32.3631 27.8129L33.3869 29.5309ZM38.3559 24.1984C39.9647 21.7048 40.9938 19.3448 41.3834 17.1261L39.4135 16.7802C39.0843 18.6552 38.1916 20.7639 36.6753 23.1141L38.3559 24.1984ZM40.3767 15.9534L39.2986 15.9768L39.342 17.9763L40.4202 17.9529L40.3767 15.9534ZM39.3203 15.9766C36.7183 15.9766 35.0415 15.76 34.1535 15.4125L33.4247 17.275C34.6929 17.7713 36.7036 17.9766 39.3203 17.9766V15.9766ZM34.1698 15.4191C33.7699 15.2544 33.5416 15.0613 33.4098 14.8751C33.2818 14.6944 33.1953 14.4513 33.1953 14.0938H31.1953C31.1953 14.7987 31.3745 15.4618 31.7777 16.0311C32.1771 16.595 32.7457 16.9956 33.4083 17.2684L34.1698 15.4191ZM33.1953 14.0938C33.1953 12.731 33.9564 10.9989 35.7901 8.86217L34.2724 7.5597C32.3248 9.82919 31.1953 12.019 31.1953 14.0938H33.1953ZM35.79 8.86228C37.2177 7.19909 38.8975 5.90156 40.8347 4.96231L39.9622 3.16269C37.7743 4.22344 35.876 5.69153 34.2725 7.55959L35.79 8.86228ZM40.8402 4.95963C42.788 4.00047 45.3514 3.23354 48.5604 2.6808L48.2209 0.709825C44.8986 1.28208 42.1338 2.09328 39.9567 3.16537L40.8402 4.95963ZM48.5644 2.6801L49.3613 2.53947L49.0137 0.569904L48.2168 0.710529L48.5644 2.6801ZM48.2046 1.3704L48.1343 1.7454L50.1001 2.11398L50.1704 1.73898L48.2046 1.3704ZM48.141 1.71276C47.9822 2.42739 47.8537 3.06889 47.7566 3.63572L49.7278 3.97365C49.8181 3.44674 49.9397 2.83823 50.0934 2.14662L48.141 1.71276ZM47.7564 3.63689L47.3814 5.84001L49.353 6.17561L49.728 3.97249L47.7564 3.63689ZM47.3791 5.85411C47.2731 6.53559 47.2031 7.07113 47.2031 7.36719H49.2031C49.2031 7.257 49.2426 6.88629 49.3553 6.16152L47.3791 5.85411ZM47.2031 7.36719C47.2031 7.7067 47.2695 8.14734 47.5734 8.51452C47.9072 8.91794 48.3689 9.04688 48.7656 9.04688V7.04688C48.7706 7.04688 48.8202 7.04744 48.8931 7.07681C48.9722 7.10864 49.0516 7.16378 49.1141 7.23939C49.2305 7.38 49.2031 7.4808 49.2031 7.36719H47.2031ZM48.7656 9.04688C49.1709 9.04688 49.5672 8.96307 49.9484 8.81482L49.2235 6.95081C49.0422 7.02131 48.8916 7.04688 48.7656 7.04688V9.04688ZM49.9573 8.81129C50.5821 8.5614 51.0313 8.38325 51.3078 8.27575L50.5829 6.41175C50.2968 6.523 49.8398 6.70423 49.2145 6.95434L49.9573 8.81129ZM41.2064 16.6768C40.7275 18.7082 39.6929 20.8807 38.058 23.1968L39.692 24.3501C41.4321 21.8849 42.6006 19.4793 43.153 17.1357L41.2064 16.6768ZM38.058 23.1968C36.4256 25.5094 34.6276 27.3539 32.6699 28.7479L33.8301 30.3771C35.9974 28.8336 37.9494 26.8187 39.692 24.3501L38.058 23.1968ZM32.3438 29.9854C33.1431 31.6981 34.0762 33.026 35.1923 33.8394L36.3702 32.2231C35.6425 31.6928 34.8882 30.7082 34.1562 29.1396L32.3438 29.9854ZM35.2013 33.8459C36.3383 34.6553 37.7627 35.0156 39.3906 35.0156V33.0156C38.0498 33.0156 37.0679 32.7197 36.3612 32.2166L35.2013 33.8459ZM39.3906 35.0156C42.7202 35.0156 45.6393 33.6298 48.1148 30.9704L46.6508 29.6077C44.5013 31.917 42.0923 33.0156 39.3906 33.0156V35.0156ZM48.1125 30.9729C50.6033 28.3149 51.875 25.2228 51.875 21.7344H49.875C49.875 24.6834 48.8186 27.2945 46.6531 29.6053L48.1125 30.9729ZM51.875 21.7344C51.875 19.7585 51.3176 18.1076 49.9121 17.1563L48.791 18.8125C49.4168 19.2361 49.875 20.0853 49.875 21.7344H51.875ZM49.9267 17.1663C48.6516 16.2698 46.565 15.9297 43.9375 15.9297V17.9297C46.5288 17.9297 48.0515 18.2927 48.7764 18.8024L49.9267 17.1663ZM43.9375 15.9297H42.7656V17.9297H43.9375V15.9297ZM42.8056 15.9305L42.2197 15.907L42.1397 17.9055L42.7257 17.9289L42.8056 15.9305ZM31.2313 29.9703C30.4963 28.3472 29.9625 26.9137 29.6207 25.6656L27.6918 26.1938C28.0688 27.5707 28.6444 29.106 29.4094 30.7953L31.2313 29.9703ZM29.6212 25.6671L27.7462 18.7765L25.8163 19.3016L27.6913 26.1922L29.6212 25.6671ZM27.7465 18.7778C26.2485 13.2431 24.4121 9.09828 22.1767 6.46257L20.6514 7.75618C22.6036 10.058 24.3452 13.8663 25.816 19.3003L27.7465 18.7778ZM22.1787 6.46494C19.9036 3.76538 17.0189 2.38281 13.5859 2.38281V4.38281C16.4029 4.38281 18.737 5.48462 20.6494 7.75381L22.1787 6.46494ZM13.5859 2.38281C10.0721 2.38281 7.21914 3.57328 5.15725 6.01959L6.6865 7.30853C8.31211 5.37985 10.5685 4.38281 13.5859 4.38281V2.38281ZM5.15455 6.0228C3.12974 8.44565 2.17969 11.7326 2.17969 15.7578H4.17969C4.17969 12.033 5.05776 9.25748 6.6892 7.30532L5.15455 6.0228ZM2.17969 15.7578C2.17969 17.8972 2.56978 20.0495 3.33919 22.2104L5.22331 21.5396C4.52397 19.5755 4.17969 17.6497 4.17969 15.7578H2.17969ZM3.34146 22.2167C4.12669 24.3761 5.18936 26.2692 6.53712 27.8831L8.07226 26.6012C6.88877 25.184 5.93581 23.4989 5.22104 21.5333L3.34146 22.2167ZM6.5375 27.8836C8.22551 29.9026 10.2724 31.4767 12.6692 32.6007L13.5183 30.7899C11.3838 29.7889 9.57136 28.3943 8.07188 26.6008L6.5375 27.8836ZM12.6692 32.6007C15.0667 33.725 17.5865 34.2891 20.2188 34.2891V32.2891C17.8822 32.2891 15.6521 31.7906 13.5183 30.7899L12.6692 32.6007ZM20.2188 34.2891C23.7487 34.2891 27.2847 33.26 30.8147 31.252L29.8259 29.5136C26.5434 31.3807 23.345 32.2891 20.2188 32.2891V34.2891ZM62.1602 15.3711L63.1072 15.6921L63.555 14.3711H62.1602V15.3711ZM60.9883 18.8281L60.0412 18.5071L59.5934 19.8281H60.9883V18.8281ZM64.875 27.4219L63.9651 27.007L63.9624 27.013L64.875 27.4219ZM61.9453 31.7383L62.6576 32.4401L62.6598 32.4379L61.9453 31.7383ZM56.418 32.5L56.9612 31.6604L56.0536 31.0731L55.5387 32.0237L56.418 32.5ZM61.5352 31.0938L62.3233 31.7092L62.3233 31.7092L61.5352 31.0938ZM60.2266 20.8398V19.8398H59.5495L59.2981 20.4685L60.2266 20.8398ZM60.0312 21.3281L59.1028 20.9567L59.0995 20.9648L59.0964 20.973L60.0312 21.3281ZM56.5742 30.3516L55.6439 29.9848L55.6432 29.9866L56.5742 30.3516ZM51.2227 44.0039L50.2916 43.6389L50.2872 43.6505L51.2227 44.0039ZM50.8906 44.8828L51.2914 45.799L51.6773 45.6302L51.8261 45.2362L50.8906 44.8828ZM48.9375 45.5273L48.7126 44.553L48.6838 44.5596L48.6553 44.568L48.9375 45.5273ZM48.6055 45.625L47.6833 45.2383L46.8699 47.1778L48.8876 46.5844L48.6055 45.625ZM48.8594 45.0195L47.9435 44.618L47.9403 44.6254L47.9372 44.6328L48.8594 45.0195ZM55.7539 26.7773L56.697 27.1099L56.6999 27.1017L56.7026 27.0936L55.7539 26.7773ZM55.9297 26.25L55.7508 25.2661L55.1682 25.372L54.981 25.9338L55.9297 26.25ZM56.1445 26.2109L56.3234 27.1948L56.3533 27.1894L56.3828 27.1821L56.1445 26.2109ZM57.6484 25.2734L58.4732 25.839L58.4805 25.8281L57.6484 25.2734ZM59.2695 21.6016L60.2018 21.9634L60.2029 21.9605L59.2695 21.6016ZM59.5625 20.8398L60.4958 21.1988L60.9976 19.8943L59.6009 19.8406L59.5625 20.8398ZM59.0547 20.8203L59.0931 19.8211L59.0739 19.8203H59.0547V20.8203ZM56.1836 21.0156L56.0402 20.026L55.4644 20.1094L55.2524 20.6512L56.1836 21.0156ZM55.1289 23.7109L54.735 24.6301L55.6839 25.0368L56.0601 24.0753L55.1289 23.7109ZM54.582 23.4766L53.6469 23.1223L53.3074 24.0183L54.1881 24.3957L54.582 23.4766ZM56.2617 19.043L56.1449 18.0498L55.5417 18.1208L55.3266 18.6887L56.2617 19.043ZM56.5938 19.0039L56.5329 18.0058L56.5048 18.0075L56.4769 18.0108L56.5938 19.0039ZM58.1953 18.9062L58.1519 17.9072L58.1432 17.9076L58.1344 17.9081L58.1953 18.9062ZM59.9922 18.8281V17.8281H59.9705L59.9488 17.8291L59.9922 18.8281ZM60.3047 18.8086L60.3814 19.8056L61.0313 19.7557L61.2479 19.1409L60.3047 18.8086ZM61.5156 15.3711V14.3711H60.8077L60.5724 15.0388L61.5156 15.3711ZM61.2131 15.0501L60.0412 18.5071L61.9353 19.1492L63.1072 15.6921L61.2131 15.0501ZM60.9883 19.8281C62.5505 19.8281 63.5376 20.1408 64.1188 20.5995C64.655 21.0225 64.9883 21.6838 64.9883 22.7734H66.9883C66.9883 21.2328 66.4883 19.9215 65.3577 19.0294C64.2723 18.173 62.7594 17.8281 60.9883 17.8281V19.8281ZM64.9883 22.7734C64.9883 24.0742 64.6605 25.4821 63.9651 27.007L65.7849 27.8368C66.5739 26.1065 66.9883 24.4154 66.9883 22.7734H64.9883ZM63.9624 27.013C63.2806 28.5349 62.3704 29.8748 61.2308 31.0387L62.6598 32.4379C63.9681 31.1018 65.0111 29.5641 65.7876 27.8307L63.9624 27.013ZM61.233 31.0364C59.5265 32.7684 58.2463 33.3945 57.3555 33.3945V35.3945C59.0948 35.3945 60.8745 34.2499 62.6576 32.4401L61.233 31.0364ZM57.3555 33.3945C57.2233 33.3945 57.1435 33.3804 57.1027 33.369C57.0644 33.3583 57.0745 33.3542 57.1033 33.3783C57.1174 33.39 57.1316 33.405 57.144 33.4224C57.1564 33.4396 57.1637 33.4545 57.1674 33.4639C57.1745 33.4816 57.1641 33.4669 57.1641 33.3984H55.1641C55.1641 33.9363 55.3334 34.5055 55.8205 34.9127C56.2733 35.2912 56.8435 35.3945 57.3555 35.3945V33.3945ZM57.1641 33.3984C57.1641 33.3137 57.1884 33.1772 57.2973 32.9763L55.5387 32.0237C55.309 32.4478 55.1641 32.9102 55.1641 33.3984H57.1641ZM55.8747 33.3396C56.6015 33.8098 57.3643 34.1445 58.1172 34.1445V32.1445C57.9325 32.1445 57.5626 32.0496 56.9612 31.6604L55.8747 33.3396ZM58.1172 34.1445C59.7529 34.1445 61.152 33.2091 62.3233 31.7092L60.747 30.4783C59.7829 31.7128 58.9034 32.1445 58.1172 32.1445V34.1445ZM62.3233 31.7092C63.1353 30.6694 63.8056 29.4473 64.343 28.0555L62.4773 27.3351C61.9991 28.5736 61.4194 29.6171 60.747 30.4783L62.3233 31.7092ZM64.343 28.0555C64.8779 26.6704 65.1719 25.3914 65.1719 24.2383H63.1719C63.1719 25.0643 62.9581 26.09 62.4773 27.3351L64.343 28.0555ZM65.1719 24.2383C65.1719 22.9092 64.7792 21.7423 63.8382 20.9318C62.9258 20.1458 61.6623 19.8398 60.2266 19.8398V21.8398C61.421 21.8398 62.1302 22.1003 62.5329 22.4471C62.907 22.7694 63.1719 23.3018 63.1719 24.2383H65.1719ZM59.2981 20.4685L59.1028 20.9567L60.9597 21.6995L61.155 21.2112L59.2981 20.4685ZM59.0964 20.973C57.325 25.636 56.175 28.6376 55.6439 29.9848L57.5045 30.7183C58.0411 29.3572 59.1958 26.3432 60.9661 21.6833L59.0964 20.973ZM55.6432 29.9866L50.2916 43.639L52.1537 44.3689L57.5052 30.7165L55.6432 29.9866ZM50.2872 43.6505L49.9552 44.5294L51.8261 45.2362L52.1581 44.3573L50.2872 43.6505ZM50.4898 43.9667C49.9226 44.2148 49.3305 44.4104 48.7126 44.553L49.1624 46.5017C49.8986 46.3318 50.6087 46.0977 51.2914 45.799L50.4898 43.9667ZM48.6553 44.568L48.3233 44.6656L48.8876 46.5844L49.2197 46.4867L48.6553 44.568ZM49.5277 46.0117L49.7816 45.4063L47.9372 44.6328L47.6833 45.2383L49.5277 46.0117ZM49.7752 45.421C51.367 41.7902 53.6758 35.6787 56.697 27.1099L54.8108 26.4448C51.7904 35.0114 49.5028 41.0613 47.9435 44.618L49.7752 45.421ZM56.7026 27.0936L56.8784 26.5662L54.981 25.9338L54.8052 26.4611L56.7026 27.0936ZM56.1086 27.2339L56.3234 27.1948L55.9656 25.2271L55.7508 25.2661L56.1086 27.2339ZM56.3828 27.1821C57.2414 26.9715 57.9856 26.55 58.4732 25.839L56.8237 24.7079C56.6863 24.9083 56.4279 25.1118 55.9063 25.2397L56.3828 27.1821ZM58.4805 25.8281C58.6894 25.5148 58.9324 25.0205 59.2029 24.4078C59.4817 23.7763 59.8149 22.96 60.2018 21.9634L58.3373 21.2397C57.9559 22.2223 57.6349 23.0075 57.3733 23.6C57.1034 24.2112 56.92 24.5633 56.8164 24.7187L58.4805 25.8281ZM60.2029 21.9605L60.4958 21.1988L58.6292 20.4809L58.3362 21.2426L60.2029 21.9605ZM59.6009 19.8406L59.0931 19.8211L59.0163 21.8196L59.5241 21.8391L59.6009 19.8406ZM59.0547 19.8203C57.9966 19.8203 56.9913 19.8881 56.0402 20.026L56.327 22.0053C57.1728 21.8827 58.0815 21.8203 59.0547 21.8203V19.8203ZM55.2524 20.6512L54.1977 23.3465L56.0601 24.0753L57.1148 21.38L55.2524 20.6512ZM55.5228 22.7918L54.976 22.5574L54.1881 24.3957L54.735 24.6301L55.5228 22.7918ZM55.5172 23.8308L57.1969 19.3973L55.3266 18.6887L53.6469 23.1223L55.5172 23.8308ZM56.3786 20.0361L56.7106 19.9971L56.4769 18.0108L56.1449 18.0498L56.3786 20.0361ZM56.6546 20.0021L58.2562 19.9044L58.1344 17.9081L56.5329 18.0058L56.6546 20.0021ZM58.2387 19.9053L60.0356 19.8272L59.9488 17.8291L58.1519 17.9072L58.2387 19.9053ZM59.9922 19.8281C60.0789 19.8281 60.2286 19.8174 60.3814 19.8056L60.228 17.8115C60.1456 17.8179 60.0825 17.8224 60.0372 17.8252C60.0145 17.8266 59.9986 17.8275 59.9883 17.8279C59.9753 17.8285 59.9792 17.8281 59.9922 17.8281V19.8281ZM61.2479 19.1409L62.4588 15.7034L60.5724 15.0388L59.3615 18.4763L61.2479 19.1409ZM61.5156 16.3711H62.1602V14.3711H61.5156V16.3711ZM77.1406 8.14453H78.1406V6.5265L76.6934 7.2501L77.1406 8.14453ZM73.9766 17.6953L73.0617 17.2915L73.0612 17.2928L73.9766 17.6953ZM68.3906 32.1875L67.3918 32.139L67.3916 32.1431L68.3906 32.1875ZM69.0938 33.0273L69.0593 32.0279L69.0502 32.0282L69.0412 32.0287L69.0938 33.0273ZM71.1055 31.875L70.5055 31.075L70.497 31.0814L70.4886 31.0879L71.1055 31.875ZM71.3398 31.6992L72.1472 31.1092L71.5498 30.2917L70.7398 30.8992L71.3398 31.6992ZM71.7109 32.207L72.3698 32.9593L73.0585 32.3562L72.5183 31.617L71.7109 32.207ZM66.7305 29.7656L65.7892 29.4278L65.7867 29.4349L66.7305 29.7656ZM70.6172 20.1367L71.54 20.522L71.5403 20.5213L70.6172 20.1367ZM72.4727 15.6836L71.5505 15.2967L71.5496 15.299L72.4727 15.6836ZM72.5117 10.7422L72.216 9.7869L72.1776 9.79878L72.1403 9.81371L72.5117 10.7422ZM72.2188 10.8398L71.2734 11.1658L71.5864 12.0736L72.5061 11.7977L72.2188 10.8398ZM72.0234 10.2734L71.652 9.34496L70.7675 9.69878L71.0781 10.5994L72.0234 10.2734ZM72.3164 10.1562L71.96 9.22193L71.9525 9.22479L71.945 9.22777L72.3164 10.1562ZM76.1406 8.14453C76.1406 8.76811 75.9229 9.83189 75.4003 11.4092C74.887 12.9588 74.1098 14.9172 73.0617 17.2915L74.8914 18.0991C75.9527 15.6947 76.7576 13.672 77.2989 12.0381C77.831 10.4318 78.1406 9.1095 78.1406 8.14453H76.1406ZM73.0612 17.2928C71.2294 21.4582 69.842 24.7623 68.9029 27.1989C68.4336 28.4164 68.0718 29.4286 67.8218 30.2293C67.5811 31.0002 67.4149 31.6628 67.3918 32.139L69.3894 32.236C69.3989 32.0416 69.4898 31.5975 69.7309 30.8254C69.9627 30.0832 70.3073 29.1161 70.769 27.9182C71.6918 25.5241 73.0649 22.2527 74.892 18.0979L73.0612 17.2928ZM67.3916 32.1431C67.3739 32.5422 67.4293 33.0599 67.7801 33.4789C68.1659 33.9396 68.7057 34.0492 69.1463 34.026L69.0412 32.0287C69.0118 32.0303 69.0397 32.024 69.1003 32.0451C69.1696 32.0692 69.2495 32.1184 69.3136 32.195C69.3735 32.2665 69.3899 32.3263 69.3922 32.3357C69.3937 32.342 69.3861 32.3126 69.3896 32.2319L67.3916 32.1431ZM69.1282 34.0267C69.576 34.0113 70.0188 33.8024 70.3769 33.5972C70.7709 33.3715 71.2218 33.0544 71.7224 32.6621L70.4886 31.0879C70.0256 31.4508 69.6594 31.7033 69.3828 31.8618C69.0704 32.0407 68.9891 32.0304 69.0593 32.0279L69.1282 34.0267ZM71.7055 32.675L71.9398 32.4992L70.7398 30.8992L70.5055 31.075L71.7055 32.675ZM70.5325 32.2892L70.9035 32.797L72.5183 31.617L72.1472 31.1092L70.5325 32.2892ZM71.0521 31.4547C70.0272 32.3523 69.1697 32.998 68.4734 33.414C67.7501 33.8461 67.3138 33.9609 67.1016 33.9609V35.9609C67.8659 35.9609 68.6861 35.6167 69.4992 35.1309C70.3394 34.6289 71.2983 33.8977 72.3698 32.9593L71.0521 31.4547ZM67.1016 33.9609C67.0225 33.9609 67.0012 33.9473 67.0118 33.9522C67.0276 33.9596 67.038 33.9718 67.0364 33.9695C67.0169 33.9423 66.9297 33.7783 66.9297 33.3203H64.9297C64.9297 33.956 65.0378 34.6124 65.4089 35.132C65.8244 35.7136 66.4481 35.9609 67.1016 35.9609V33.9609ZM66.9297 33.3203C66.9297 32.6471 67.1502 31.5917 67.6742 30.0963L65.7867 29.4349C65.2431 30.9864 64.9297 32.3008 64.9297 33.3203H66.9297ZM67.6717 30.1035C68.2083 28.6085 69.4934 25.4233 71.54 20.522L69.6944 19.7514C67.6524 24.6418 66.3464 27.8759 65.7893 29.4278L67.6717 30.1035ZM71.5403 20.5213L73.3957 16.0682L71.5496 15.299L69.6941 19.7521L71.5403 20.5213ZM73.3948 16.0704C73.9572 14.7298 74.3848 13.6551 74.6734 12.8532C74.8173 12.4531 74.9312 12.1086 75.0103 11.8261C75.0808 11.5743 75.1523 11.2768 75.1523 11.0156H73.1523C73.1523 10.9758 73.1539 11.0388 73.0844 11.2867C73.0236 11.5039 72.9275 11.7982 72.7915 12.1761C72.5201 12.9302 72.1079 13.9682 71.5505 15.2967L73.3948 16.0704ZM75.1523 11.0156C75.1523 10.647 75.0401 10.1991 74.6578 9.86604C74.3018 9.556 73.8715 9.48828 73.5469 9.48828V11.4883C73.6259 11.4883 73.4983 11.5085 73.3442 11.3742C73.2644 11.3047 73.2105 11.2207 73.1806 11.1423C73.1529 11.07 73.1523 11.0211 73.1523 11.0156H75.1523ZM73.5469 9.48828C73.3407 9.48828 73.1117 9.53902 72.9424 9.58055C72.7426 9.62956 72.4985 9.69946 72.216 9.7869L72.8074 11.6975C73.0718 11.6156 73.2737 11.5586 73.4189 11.523C73.4915 11.5052 73.5414 11.4948 73.5724 11.4895C73.6114 11.4827 73.595 11.4883 73.5469 11.4883V9.48828ZM72.1403 9.81371C72.1176 9.8228 72.0543 9.84516 71.9314 9.88202L72.5061 11.7977C72.6436 11.7564 72.7756 11.7137 72.8831 11.6707L72.1403 9.81371ZM73.1641 10.5139L72.9688 9.94745L71.0781 10.5994L71.2734 11.1658L73.1641 10.5139ZM72.3948 11.2019L72.6878 11.0847L71.945 9.22777L71.652 9.34496L72.3948 11.2019ZM72.6729 11.0906C74.9282 10.2302 76.5764 9.54468 77.5878 9.03896L76.6934 7.2501C75.7778 7.70792 74.2099 8.36359 71.96 9.22193L72.6729 11.0906ZM85.3047 32.0117L86.1269 31.4425L85.596 30.6757L84.7941 31.1519L85.3047 32.0117ZM85.6562 32.5195L86.2575 33.3186L87.0256 32.7407L86.4784 31.9503L85.6562 32.5195ZM80.0508 34.9414L79.052 34.892L78.9855 36.2349L80.2908 35.9122L80.0508 34.9414ZM82.375 28.1445L83.283 28.5636L81.6126 27.4975L82.375 28.1445ZM77.1797 33.0664L76.5901 32.2587L76.5873 32.2608L77.1797 33.0664ZM74.2305 26.9141L75.0223 27.5249L75.0239 27.5227L74.2305 26.9141ZM80.8516 21.2695L81.3361 22.1443L81.3407 22.1417L80.8516 21.2695ZM89.8359 20.7031L89.6622 21.6879L90.3754 21.8138L90.7174 21.1753L89.8359 20.7031ZM77.0039 25.0977L77.7358 25.7791L77.7368 25.778L77.0039 25.0977ZM77.8047 31.7188L78.4797 32.4566L78.4839 32.4527L77.8047 31.7188ZM81.0859 27.793L81.9247 28.3374L81.9261 28.3353L81.0859 27.793ZM83.8008 21.3867L84.3182 20.531L83.1212 19.8072L82.8237 21.1741L83.8008 21.3867ZM82.7266 27.6172L81.9372 27.0032L80.5373 28.8031L82.8096 28.6137L82.7266 27.6172ZM85.0508 27.0703L85.9556 27.4961L86.9557 25.3708L84.7306 26.123L85.0508 27.0703ZM84.8945 27.4023L83.9897 26.9765L83.9854 26.9857L83.9813 26.995L84.8945 27.4023ZM83.5664 32.793L83.6403 33.7903L83.6462 33.7898L83.5664 32.793ZM84.4825 32.5809L84.8341 33.0887L86.4784 31.9503L86.1269 31.4425L84.4825 32.5809ZM85.055 31.7204C83.831 32.6414 82.1014 33.4043 79.8108 33.9706L80.2908 35.9122C82.7398 35.3067 84.7471 34.455 86.2575 33.3186L85.055 31.7204ZM81.0496 34.9909C81.0752 34.4737 81.2494 33.6834 81.6269 32.5794C81.9993 31.4904 82.549 30.1537 83.283 28.5636L81.467 27.7255C80.7166 29.3515 80.1368 30.7557 79.7345 31.9323C79.3372 33.0939 79.0915 34.094 79.052 34.892L81.0496 34.9909ZM81.6126 27.4975C79.9753 29.4266 78.3002 31.0104 76.5901 32.2587L77.7693 33.8741C79.6268 32.5182 81.4153 30.8207 83.1374 28.7916L81.6126 27.4975ZM76.5873 32.2608C74.8333 33.5505 73.6553 34.0195 72.9609 34.0195V36.0195C74.3499 36.0195 75.9844 35.1865 77.7721 33.8721L76.5873 32.2608ZM72.9609 34.0195C72.8375 34.0195 72.7758 33.9998 72.753 33.9902C72.7363 33.9831 72.7304 33.978 72.7216 33.9667C72.6918 33.929 72.5938 33.7568 72.5938 33.2812H70.5938C70.5938 33.9646 70.7235 34.6615 71.1495 35.2032C71.6115 35.7905 72.2786 36.0195 72.9609 36.0195V34.0195ZM72.5938 33.2812C72.5938 31.6178 73.3392 29.7066 75.0223 27.5249L73.4387 26.3033C71.6061 28.6788 70.5938 31.0124 70.5938 33.2812H72.5938ZM75.0239 27.5227C76.6939 25.3456 78.7937 23.5526 81.3361 22.1443L80.367 20.3948C77.5969 21.9292 75.2827 23.8992 73.437 26.3054L75.0239 27.5227ZM81.3407 22.1417C84.2097 20.5326 87.0246 19.75 89.7969 19.75V17.75C86.6316 17.75 83.483 18.6471 80.3624 20.3973L81.3407 22.1417ZM89.7969 19.75C89.9091 19.75 89.8109 19.7761 89.6656 19.6672C89.5834 19.6055 89.5134 19.5196 89.469 19.4198C89.4272 19.3258 89.4219 19.2507 89.4219 19.2188H91.4219C91.4219 18.8185 91.2733 18.3729 90.8656 18.0672C90.5121 17.802 90.1014 17.75 89.7969 17.75V19.75ZM89.4219 19.2188C89.4219 19.1501 89.4347 19.1913 89.3452 19.418C89.2673 19.6155 89.1403 19.8839 88.9545 20.2309L90.7174 21.1753C90.9222 20.7932 91.0882 20.4496 91.2055 20.1523C91.3114 19.8842 91.4219 19.5478 91.4219 19.2188H89.4219ZM90.0097 19.7183C89.0714 19.5528 88.1538 19.4688 87.2578 19.4688V21.4688C88.0285 21.4688 88.8296 21.541 89.6622 21.6879L90.0097 19.7183ZM87.2578 19.4688C82.9901 19.4688 79.312 21.1413 76.271 24.4173L77.7368 25.778C80.425 22.8821 83.5829 21.4688 87.2578 21.4688V19.4688ZM76.272 24.4162C74.058 26.7942 72.8398 29.2721 72.8398 31.8359H74.8398C74.8398 29.9466 75.731 27.9323 77.7358 25.7791L76.272 24.4162ZM72.8398 31.8359C72.8398 32.4503 72.9479 33.0926 73.3231 33.6014C73.7403 34.167 74.3577 34.3984 74.9922 34.3984V32.3984C74.9123 32.3984 74.8898 32.385 74.8999 32.3895C74.9048 32.3917 74.9127 32.3962 74.9211 32.403C74.9293 32.4097 74.933 32.4147 74.9327 32.4143C74.9238 32.4022 74.8398 32.2632 74.8398 31.8359H72.8398ZM74.9922 34.3984C75.5824 34.3984 76.1657 34.154 76.6963 33.8371C77.2447 33.5095 77.8407 33.0412 78.4797 32.4566L77.1297 30.9809C76.5447 31.5161 76.06 31.8876 75.6709 32.12C75.264 32.363 75.053 32.3984 74.9922 32.3984V34.3984ZM78.4839 32.4527C79.7723 31.2602 80.9188 29.8871 81.9247 28.3374L80.2472 27.2485C79.326 28.6676 78.285 29.9117 77.1254 30.9848L78.4839 32.4527ZM81.9261 28.3353C83.314 26.1854 84.2686 23.9393 84.7779 21.5994L82.8237 21.1741C82.3694 23.2612 81.5141 25.2859 80.2458 27.2506L81.9261 28.3353ZM83.2834 22.2425C83.4328 22.3328 83.6406 22.5476 83.6406 23.2617H85.6406C85.6406 22.153 85.2886 21.1177 84.3182 20.531L83.2834 22.2425ZM83.6406 23.2617C83.6406 24.1991 83.1577 25.434 81.9372 27.0032L83.5159 28.2311C84.8475 26.5191 85.6406 24.8504 85.6406 23.2617H83.6406ZM82.8096 28.6137C83.547 28.5523 84.4072 28.3435 85.371 28.0177L84.7306 26.123C83.8454 26.4222 83.1561 26.5779 82.6435 26.6206L82.8096 28.6137ZM84.146 26.6445L83.9897 26.9765L85.7993 27.8281L85.9556 27.4961L84.146 26.6445ZM83.9813 26.995C83.3599 28.3881 82.8875 29.506 82.5686 30.3418C82.4095 30.7588 82.2837 31.1185 82.1961 31.4142C82.118 31.6783 82.0391 31.9902 82.0391 32.2656H84.0391C84.0391 32.3067 84.0375 32.2401 84.1139 31.9818C84.181 31.755 84.2871 31.4483 84.4372 31.0547C84.7369 30.2694 85.1922 29.19 85.8078 27.8097L83.9813 26.995ZM82.0391 32.2656C82.0391 32.5843 82.1105 33.0345 82.4638 33.3878C82.8322 33.7562 83.2998 33.8155 83.6403 33.7902L83.4925 31.7957C83.4927 31.7957 83.4953 31.7955 83.5001 31.7955C83.5049 31.7955 83.5123 31.7956 83.5219 31.7964C83.5411 31.7979 83.5711 31.802 83.6088 31.8127C83.6897 31.8357 83.7893 31.8849 83.878 31.9736C84.0555 32.1511 84.0391 32.3245 84.0391 32.2656H82.0391ZM83.6462 33.7898C83.9858 33.7626 84.3403 33.6317 84.6551 33.4902C84.9922 33.3387 85.381 33.1294 85.8152 32.8716L84.7941 31.1519C84.395 31.3888 84.0775 31.5571 83.8352 31.666C83.5705 31.785 83.4725 31.7973 83.4867 31.7962L83.6462 33.7898ZM98.9375 18.8086L99.8029 19.3096L100.535 18.046L99.0919 17.8206L98.9375 18.8086ZM98.7227 19.1797L99.5812 19.6927L99.5881 19.6807L98.7227 19.1797ZM97.7656 20.7812L96.9072 20.2683L96.9047 20.2725L97.7656 20.7812ZM96.6914 22.5L97.5154 23.0665L97.521 23.0585L97.5264 23.0503L96.6914 22.5ZM96.4766 22.8125L95.9143 23.6394L96.737 24.1989L97.3006 23.379L96.4766 22.8125ZM95.9883 22.4805L95.0779 22.0667L94.7293 22.8336L95.426 23.3074L95.9883 22.4805ZM96.125 22.168L95.2264 21.7291L95.2102 21.7623L95.1965 21.7966L96.125 22.168ZM93.1367 21.1328L93.8361 21.8477L93.8438 21.8399L93.1367 21.1328ZM92.6289 24.668L91.7185 25.0818L91.7225 25.0904L92.6289 24.668ZM93.5664 26.6797L94.4744 26.2606L94.4728 26.2573L93.5664 26.6797ZM91.4375 33.3789L92.0663 34.1565L92.0679 34.1552L91.4375 33.3789ZM85.8125 34.707L85.1936 35.4925L85.2011 35.4984L85.2086 35.5041L85.8125 34.707ZM85.6367 31.6406L86.4999 31.1357L85.6063 29.608L84.7588 31.1618L85.6367 31.6406ZM91.8672 28.9062L92.7811 28.5001L92.7766 28.4903L91.8672 28.9062ZM90.7148 26.3867L89.802 26.7951L89.8054 26.8026L90.7148 26.3867ZM92.1797 21.1133L91.4407 20.4395L91.4339 20.4471L92.1797 21.1133ZM94.582 19.2578L94.9868 20.1723L94.9936 20.1692L94.582 19.2578ZM98.0721 18.3076L97.8572 18.6787L99.5881 19.6807L99.8029 19.3096L98.0721 18.3076ZM97.8642 18.6667L96.9072 20.2683L98.624 21.2942L99.5811 19.6926L97.8642 18.6667ZM96.9047 20.2725C96.5747 20.8309 96.2253 21.39 95.8564 21.9497L97.5264 23.0503C97.9127 22.4642 98.2794 21.8774 98.6266 21.29L96.9047 20.2725ZM95.8674 21.9335L95.6525 22.246L97.3006 23.379L97.5154 23.0665L95.8674 21.9335ZM97.0389 21.9856L96.5506 21.6535L95.426 23.3074L95.9143 23.6394L97.0389 21.9856ZM96.8986 22.8943C96.9643 22.7498 97.0182 22.6276 97.0535 22.5394L95.1965 21.7966C95.1797 21.8386 95.1425 21.9246 95.0779 22.0667L96.8986 22.8943ZM97.0236 22.6068C97.1706 22.3058 97.2918 22.0266 97.3782 21.7757C97.4588 21.5416 97.5352 21.2595 97.5352 20.9766H95.5352C95.5352 20.928 95.5432 20.9617 95.4871 21.1247C95.4367 21.2709 95.3529 21.4702 95.2264 21.7291L97.0236 22.6068ZM97.5352 20.9766C97.5352 20.3632 97.2273 19.8484 96.7013 19.5501C96.2591 19.2993 95.7245 19.2344 95.2266 19.2344V21.2344C95.4003 21.2344 95.5264 21.2469 95.6133 21.2634C95.7021 21.2801 95.7268 21.2966 95.7147 21.2898C95.6965 21.2795 95.6394 21.2405 95.5912 21.1585C95.5427 21.076 95.5352 21.004 95.5352 20.9766H97.5352ZM95.2266 19.2344C94.1482 19.2344 93.2023 19.653 92.4296 20.4257L93.8438 21.8399C94.2691 21.4147 94.7164 21.2344 95.2266 21.2344V19.2344ZM92.4374 20.418C91.6616 21.1769 91.2383 22.1124 91.2383 23.1836H93.2383C93.2383 22.6923 93.4139 22.2606 93.836 21.8476L92.4374 20.418ZM91.2383 23.1836C91.2383 23.7969 91.4264 24.4391 91.7185 25.0818L93.5393 24.2542C93.3106 23.751 93.2383 23.4036 93.2383 23.1836H91.2383ZM91.7225 25.0904L92.66 27.1021L94.4728 26.2573L93.5353 24.2456L91.7225 25.0904ZM92.6584 27.0987C92.9054 27.6339 93.0352 28.2315 93.0352 28.9062H95.0352C95.0352 27.9664 94.8524 27.0797 94.4744 26.2606L92.6584 27.0987ZM93.0352 28.9062C93.0352 30.0703 92.4068 31.3037 90.8071 32.6026L92.0679 34.1552C93.9318 32.6417 95.0352 30.8933 95.0352 28.9062H93.0352ZM90.8087 32.6013C89.381 33.7559 88.2746 34.1953 87.4531 34.1953V36.1953C88.9494 36.1953 90.4992 35.4237 92.0663 34.1565L90.8087 32.6013ZM87.4531 34.1953C86.9555 34.1953 86.6352 34.0757 86.4164 33.9099L85.2086 35.5041C85.8492 35.9894 86.6227 36.1953 87.4531 36.1953V34.1953ZM86.4314 33.9215C86.2283 33.7616 86.168 33.615 86.168 33.418H84.168C84.168 34.2626 84.5373 34.9754 85.1936 35.4925L86.4314 33.9215ZM86.168 33.418C86.168 32.9844 86.2768 32.5556 86.5146 32.1195L84.7588 31.1618C84.3717 31.8715 84.168 32.6276 84.168 33.418H86.168ZM84.7735 32.1455C85.692 33.7158 86.9744 34.7109 88.6445 34.7109V32.7109C87.9188 32.7109 87.196 32.3258 86.4999 31.1357L84.7735 32.1455ZM88.6445 34.7109C89.8483 34.7109 90.9234 34.2899 91.8301 33.4803L90.498 31.9884C89.9464 32.481 89.3418 32.7109 88.6445 32.7109V34.7109ZM91.8301 33.4803C92.7394 32.6685 93.2578 31.6537 93.2578 30.4688H91.2578C91.2578 31.0026 91.0471 31.4982 90.498 31.9884L91.8301 33.4803ZM93.2578 30.4688C93.2578 29.8284 93.0767 29.1655 92.781 28.5001L90.9534 29.3124C91.1785 29.8189 91.2578 30.1977 91.2578 30.4688H93.2578ZM92.7766 28.4903L91.6242 25.9708L89.8054 26.8026L90.9578 29.3222L92.7766 28.4903ZM91.6277 25.9784C91.4696 25.625 91.3828 25.2192 91.3828 24.7461H89.3828C89.3828 25.4709 89.5174 26.1589 89.802 26.7951L91.6277 25.9784ZM91.3828 24.7461C91.3828 24.0294 91.7901 23.0506 92.9255 21.7794L91.4339 20.4471C90.1734 21.8583 89.3828 23.3013 89.3828 24.7461H91.3828ZM92.9186 21.787C93.6657 20.9677 94.3579 20.4506 94.9868 20.1722L94.1773 18.3434C93.2177 18.7681 92.3083 19.488 91.4407 20.4395L92.9186 21.787ZM94.9936 20.1692C95.6333 19.8803 96.4913 19.7109 97.6094 19.7109V17.7109C96.3056 17.7109 95.1454 17.9062 94.1704 18.3464L94.9936 20.1692ZM97.6094 19.7109C98.0321 19.7109 98.4228 19.7403 98.7831 19.7966L99.0919 17.8206C98.6189 17.7467 98.1242 17.7109 97.6094 17.7109V19.7109ZM109.426 32.2266L110.248 31.6574L109.732 30.9124L108.94 31.3524L109.426 32.2266ZM109.777 32.7344L110.253 33.614L111.235 33.083L110.6 32.1652L109.777 32.7344ZM104.816 34.8633L104.479 33.9221L104.478 33.9224L104.816 34.8633ZM104.328 35.0391L103.331 34.9687L103.223 36.4999L104.667 35.9799L104.328 35.0391ZM108.547 23.4375L107.642 23.0117L107.641 23.0136L108.547 23.4375ZM104.426 24.4336L105.168 25.1042L105.174 25.0966L104.426 24.4336ZM100.754 29.2188L99.9219 28.664L99.9209 28.6654L100.754 29.2188ZM98.0586 33.9844L98.1861 34.9762L98.7504 34.9037L98.9764 34.3815L98.0586 33.9844ZM95.5195 34.7656L94.5986 34.376L93.5205 36.924L95.9786 35.6541L95.5195 34.7656ZM95.7344 34.2578L94.8149 33.8646L94.8134 33.8682L95.7344 34.2578ZM98.1953 28.2617L97.2645 27.8963L97.2643 27.8968L98.1953 28.2617ZM100.48 22.4414L99.5522 22.0695L99.5496 22.0759L100.48 22.4414ZM102.805 16.6406L103.733 17.0126L103.735 17.0061L102.805 16.6406ZM102.707 10.9766L102.384 10.0301L102.366 10.0363L102.348 10.0432L102.707 10.9766ZM102.453 11.0742L101.508 11.4002L101.845 12.3794L102.812 12.0076L102.453 11.0742ZM102.258 10.5078L101.939 9.55993L100.984 9.88104L101.312 10.8338L102.258 10.5078ZM106.926 8.45703L107.402 9.33632L107.415 9.32957L107.427 9.32246L106.926 8.45703ZM107.297 8.24219L108.295 8.18963L108.21 6.55825L106.796 7.37676L107.297 8.24219ZM106.34 13.0664L107.285 13.3944L107.285 13.3924L106.34 13.0664ZM102.434 22.9102L101.511 22.5255L101.51 22.5278L102.434 22.9102ZM100.324 28.0078L101.243 28.4018L101.248 28.3902L100.324 28.0078ZM100.09 28.5547L99.1707 28.1608L100.867 29.1839L100.09 28.5547ZM100.422 28.1445L101.199 28.7737L101.2 28.773L100.422 28.1445ZM111.34 22.0508L110.43 21.6361L110.429 21.6385L111.34 22.0508ZM110.129 24.7266L111.04 25.1398L111.04 25.1389L110.129 24.7266ZM109.25 32.3242L109.731 33.201L109.736 33.1984L109.25 32.3242ZM108.604 32.7958L108.955 33.3036L110.6 32.1652L110.248 31.6574L108.604 32.7958ZM109.302 31.8548C108.086 32.5124 106.483 33.2026 104.479 33.9221L105.154 35.8045C107.212 35.0656 108.917 34.3366 110.253 33.614L109.302 31.8548ZM104.478 33.9224L103.989 34.0982L104.667 35.9799L105.155 35.8042L104.478 33.9224ZM105.326 35.1094C105.387 34.2393 105.733 32.8732 106.43 30.957C107.119 29.0617 108.125 26.6986 109.453 23.8614L107.641 23.0136C106.3 25.8796 105.268 28.3015 104.55 30.2735C103.841 32.2245 103.412 33.8076 103.331 34.9687L105.326 35.1094ZM109.452 23.8633C109.668 23.4039 109.84 22.998 109.96 22.6527C110.071 22.3332 110.172 21.9731 110.172 21.6406H108.172C108.172 21.6207 108.168 21.7162 108.071 21.9957C107.983 22.2494 107.843 22.5857 107.642 23.0117L109.452 23.8633ZM110.172 21.6406C110.172 21.3443 110.122 20.9403 109.863 20.5907C109.562 20.1851 109.12 20.0352 108.723 20.0352V22.0352C108.686 22.0352 108.607 22.0289 108.509 21.9852C108.406 21.9388 108.319 21.8663 108.256 21.7824C108.147 21.6345 108.172 21.5333 108.172 21.6406H110.172ZM108.723 20.0352C108.279 20.0352 107.852 20.2352 107.527 20.4185C107.166 20.623 106.756 20.9113 106.307 21.2653L107.545 22.8363C107.955 22.5132 108.274 22.2936 108.512 22.1596C108.629 22.093 108.711 22.0569 108.76 22.0392C108.814 22.0194 108.795 22.0352 108.723 22.0352V20.0352ZM106.307 21.2653C105.396 21.9831 104.52 22.8194 103.677 23.7706L105.174 25.0966C105.947 24.2248 106.737 23.4726 107.545 22.8363L106.307 21.2653ZM103.684 23.7631C102.421 25.1601 101.168 26.7954 99.9219 28.664L101.586 29.7735C102.788 27.9702 103.982 26.4154 105.168 25.1041L103.684 23.7631ZM99.9209 28.6654C98.6913 30.5166 97.7587 32.1594 97.1408 33.5873L98.9764 34.3815C99.5304 33.1011 100.395 31.5668 101.587 29.7721L99.9209 28.6654ZM97.9311 32.9925C96.9092 33.1239 95.95 33.4176 95.0605 33.8772L95.9786 35.6541C96.6516 35.3063 97.3851 35.0792 98.1861 34.9762L97.9311 32.9925ZM96.4405 35.1553L96.6553 34.6475L94.8134 33.8682L94.5986 34.376L96.4405 35.1553ZM96.6538 34.651C97.5429 32.5721 98.3671 30.564 99.1264 28.6266L97.2643 27.8968C96.5131 29.8136 95.6967 31.8029 94.8149 33.8646L96.6538 34.651ZM99.1261 28.6272L101.411 22.8069L99.5496 22.0759L97.2645 27.8963L99.1261 28.6272ZM101.409 22.8133L103.733 17.0126L101.876 16.2687L99.5522 22.0695L101.409 22.8133ZM103.735 17.0061C104.299 15.5713 104.728 14.396 105.017 13.4871C105.292 12.6259 105.484 11.8775 105.484 11.3672H103.484C103.484 11.5209 103.397 11.9835 103.112 12.8801C102.841 13.729 102.43 14.8583 101.874 16.2751L103.735 17.0061ZM105.484 11.3672C105.484 11.0063 105.404 10.549 105.066 10.1797C104.713 9.79346 104.246 9.68359 103.859 9.68359V11.6836C103.889 11.6836 103.735 11.6877 103.59 11.5293C103.461 11.3878 103.484 11.2724 103.484 11.3672H105.484ZM103.859 9.68359C103.631 9.68359 103.386 9.73482 103.178 9.78767C102.951 9.84548 102.684 9.92778 102.384 10.0301L103.03 11.9231C103.303 11.83 103.514 11.7658 103.671 11.726C103.847 11.6812 103.892 11.6836 103.859 11.6836V9.68359ZM102.348 10.0432L102.094 10.1409L102.812 12.0076L103.066 11.9099L102.348 10.0432ZM103.398 10.7482L103.203 10.1818L101.312 10.8338L101.508 11.4002L103.398 10.7482ZM102.576 11.4557C104.185 10.9151 105.793 10.2077 107.402 9.33632L106.449 7.57774C104.933 8.39909 103.43 9.05889 101.939 9.55993L102.576 11.4557ZM107.427 9.32246L107.798 9.10761L106.796 7.37676L106.425 7.5916L107.427 9.32246ZM106.298 8.29475C106.311 8.53941 106.316 8.69971 106.316 8.78906H108.316C108.316 8.64404 108.309 8.43976 108.295 8.18963L106.298 8.29475ZM106.316 8.78906C106.316 9.57648 106.04 10.8696 105.394 12.7404L107.285 13.3924C107.942 11.4872 108.316 9.92873 108.316 8.78906H106.316ZM105.395 12.7384C104.755 14.5813 103.464 17.8368 101.511 22.5255L103.357 23.2948C105.309 18.6085 106.622 15.3016 107.285 13.3944L105.395 12.7384ZM101.51 22.5278L99.4002 27.6255L101.248 28.3902L103.358 23.2925L101.51 22.5278ZM99.4051 27.6139L99.1707 28.1608L101.009 28.9486L101.243 28.4017L99.4051 27.6139ZM100.867 29.1839L101.199 28.7737L99.6446 27.5153L99.3126 27.9255L100.867 29.1839ZM101.2 28.773C103.678 25.7065 105.772 23.4439 107.488 21.9569C108.346 21.2136 109.086 20.684 109.713 20.3446C110.348 20.0005 110.802 19.8867 111.105 19.8867V17.8867C110.341 17.8867 109.549 18.1586 108.76 18.5861C107.963 19.0181 107.101 19.6458 106.178 20.4454C104.333 22.0444 102.153 24.4107 99.6441 27.516L101.2 28.773ZM111.105 19.8867C111.181 19.8867 111.207 19.8966 111.199 19.894C111.195 19.8924 111.181 19.8873 111.162 19.876C111.143 19.8646 111.122 19.8487 111.101 19.8282C111.081 19.8077 111.065 19.7865 111.054 19.7674C111.042 19.7487 111.037 19.7351 111.036 19.7303C111.033 19.7226 111.043 19.7483 111.043 19.8242H113.043C113.043 19.3576 112.926 18.8239 112.516 18.414C112.106 18.0041 111.572 17.8867 111.105 17.8867V19.8867ZM111.043 19.8242C111.043 19.9027 111.019 20.0893 110.914 20.4215C110.813 20.7409 110.654 21.1438 110.43 21.6361L112.25 22.4655C112.494 21.9291 112.687 21.4466 112.821 21.0238C112.95 20.6138 113.043 20.2015 113.043 19.8242H111.043ZM110.429 21.6385L109.218 24.3143L111.04 25.1389L112.251 22.4631L110.429 21.6385ZM109.218 24.3134C108.193 26.5719 107.418 28.3694 106.898 29.6989C106.638 30.3627 106.436 30.9229 106.298 31.3726C106.171 31.7863 106.062 32.2133 106.062 32.5586H108.062C108.062 32.5718 108.062 32.5316 108.088 32.4112C108.112 32.2998 108.151 32.1509 108.21 31.96C108.327 31.5779 108.509 31.0696 108.76 30.4281C109.262 29.1469 110.02 27.3864 111.04 25.1398L109.218 24.3134ZM106.062 32.5586C106.062 32.8676 106.146 33.2801 106.484 33.6035C106.813 33.9189 107.219 33.9883 107.512 33.9883V31.9883C107.513 31.9883 107.555 31.9881 107.619 32.0087C107.688 32.0306 107.779 32.0752 107.866 32.1582C108.054 32.3383 108.062 32.5361 108.062 32.5586H106.062ZM107.512 33.9883C107.869 33.9883 108.237 33.8826 108.567 33.7564C108.914 33.6237 109.304 33.4349 109.731 33.201L108.769 31.4474C108.388 31.6563 108.085 31.7994 107.853 31.8881C107.604 31.9833 107.506 31.9883 107.512 31.9883V33.9883ZM109.736 33.1984L109.911 33.1007L108.94 31.3524L108.764 31.4501L109.736 33.1984ZM117.59 19.1797L118.521 18.8161L118.096 17.7266L117.086 18.3159L117.59 19.1797ZM116.77 27.9883L115.801 27.7407L117.566 28.5932L116.77 27.9883ZM122.512 21.6406L123.164 22.3987L123.164 22.3983L122.512 21.6406ZM122.297 32.0312L121.568 31.3471L121.567 31.348L122.297 32.0312ZM117.492 36.0547L116.994 35.1874L117.492 36.0547ZM112.316 37.793L112.165 36.8045L112.163 36.8048L112.316 37.793ZM108.645 42.832L109.177 41.9858L109.168 41.9801L109.159 41.9745L108.645 42.832ZM115.227 42.4609L116.21 42.6419L116.609 40.4738L114.715 41.6017L115.227 42.4609ZM108.762 37.4414L108.026 36.7637L108.018 36.7732L108.762 37.4414ZM110.734 36.0742L111.066 37.0175L111.072 37.0156L110.734 36.0742ZM114.641 35.4102L114.742 36.405L114.745 36.4047L114.641 35.4102ZM118.801 34.1406L118.264 33.2967L118.263 33.2974L118.801 34.1406ZM123.098 29.9414L122.274 29.3744L122.272 29.3767L123.098 29.9414ZM124.836 26.582L125.771 26.9364L125.772 26.9332L124.836 26.582ZM119.426 25.7227L118.656 25.0844L119.426 25.7227ZM113.879 34.6289L114.783 35.057L114.786 35.0491L113.879 34.6289ZM113.703 35V36H114.336L114.607 35.4281L113.703 35ZM113.02 35L112.052 34.7455L111.722 36H113.02V35ZM113.215 34.2578L112.253 33.9844L112.25 33.9938L112.248 34.0033L113.215 34.2578ZM113.742 21.9336L113.388 20.9986L113.379 21.0018L113.371 21.0051L113.742 21.9336ZM113.469 22.0312L112.511 22.3186L112.807 23.3059L113.785 22.9799L113.469 22.0312ZM113.293 21.4453L112.846 20.5509L112.093 20.927L112.335 21.7327L113.293 21.4453ZM113.586 21.2891L113.146 20.3908L113.087 20.4201L113.031 20.457L113.586 21.2891ZM115.422 20.3906L115.861 21.2888L115.884 21.278L115.905 21.2661L115.422 20.3906ZM117.297 19.3555L117.78 20.2309L117.817 20.2107L117.852 20.1875L117.297 19.3555ZM116.658 19.5432C116.808 19.9275 116.902 20.4532 116.902 21.1523H118.902C118.902 20.289 118.788 19.4996 118.521 18.8161L116.658 19.5432ZM116.902 21.1523C116.902 22.626 116.55 24.807 115.801 27.7407L117.738 28.2358C118.499 25.2581 118.902 22.8818 118.902 21.1523H116.902ZM117.566 28.5932C119.598 25.9179 121.464 23.8607 123.164 22.3987L121.86 20.8826C120.017 22.4674 118.056 24.642 115.973 27.3834L117.566 28.5932ZM123.164 22.3983C124.024 21.6581 124.766 21.1306 125.393 20.7925C126.029 20.4497 126.485 20.3359 126.789 20.3359V18.3359C126.026 18.3359 125.234 18.6063 124.445 19.0318C123.646 19.4618 122.784 20.0867 121.859 20.8829L123.164 22.3983ZM126.789 20.3359C126.836 20.3359 126.828 20.3446 126.798 20.3278C126.766 20.3103 126.764 20.2948 126.78 20.3228C126.832 20.4085 126.922 20.666 126.922 21.2305H128.922C128.922 20.532 128.823 19.8421 128.497 19.2964C128.122 18.669 127.507 18.3359 126.789 18.3359V20.3359ZM126.922 21.2305C126.922 24.0508 125.258 27.413 121.568 31.3471L123.026 32.7154C126.836 28.6547 128.922 24.8164 128.922 21.2305H126.922ZM121.567 31.348C119.901 33.1277 118.377 34.3941 116.994 35.1874L117.99 36.922C119.603 35.9965 121.281 34.5806 123.027 32.7145L121.567 31.348ZM116.994 35.1874C115.618 35.9772 114.014 36.5211 112.165 36.8045L112.468 38.7814C114.526 38.4659 116.371 37.851 117.99 36.922L116.994 35.1874ZM112.163 36.8048C110.442 37.0716 109.044 37.4902 108.109 38.1463L109.258 39.7834C109.807 39.3979 110.831 39.0352 112.47 38.7812L112.163 36.8048ZM108.109 38.1463C107.094 38.8587 106.57 39.8901 106.57 41.1328H108.57C108.57 40.5266 108.789 40.1127 109.258 39.7834L108.109 38.1463ZM106.57 41.1328C106.57 42.2584 107.179 43.119 108.13 43.6895L109.159 41.9745C108.678 41.6857 108.57 41.4135 108.57 41.1328H106.57ZM108.112 43.6783C109.022 44.2517 110.143 44.4961 111.398 44.4961V42.4961C110.388 42.4961 109.673 42.2978 109.177 41.9858L108.112 43.6783ZM111.398 44.4961C112.966 44.4961 114.419 44.1055 115.738 43.3201L114.715 41.6017C113.716 42.1966 112.618 42.4961 111.398 42.4961V44.4961ZM114.243 42.28C114.138 42.851 113.888 43.208 113.51 43.4501C113.097 43.7151 112.434 43.9023 111.418 43.9023V45.9023C112.642 45.9023 113.733 45.6827 114.589 45.1339C115.481 44.5621 116.016 43.6985 116.21 42.6419L114.243 42.28ZM111.418 43.9023C110.236 43.9023 109.37 43.6228 108.739 43.1468L107.535 44.7438C108.596 45.5438 109.918 45.9023 111.418 45.9023V43.9023ZM108.739 43.1468C108.13 42.6881 107.867 42.1509 107.867 41.4648H105.867C105.867 42.81 106.451 43.9265 107.535 44.7438L108.739 43.1468ZM107.867 41.4648C107.867 40.5311 108.33 39.4187 109.506 38.1096L108.018 36.7732C106.667 38.2766 105.867 39.8465 105.867 41.4648H107.867ZM109.497 38.1191C110.022 37.55 110.547 37.2003 111.066 37.0175L110.402 35.1309C109.516 35.4429 108.726 36.0047 108.026 36.7637L109.497 38.1191ZM111.072 37.0156C111.632 36.8147 112.819 36.6012 114.742 36.405L114.539 34.4153C112.634 34.6097 111.217 34.839 110.397 35.1329L111.072 37.0156ZM114.745 36.4047C116.572 36.2124 118.124 35.7581 119.338 34.9839L118.263 33.2974C117.394 33.8512 116.173 34.2434 114.536 34.4157L114.745 36.4047ZM119.337 34.9846C121.137 33.8404 122.666 32.3434 123.923 30.5061L122.272 29.3767C121.16 31.003 119.824 32.3055 118.264 33.2967L119.337 34.9846ZM123.921 30.5084C124.661 29.4342 125.276 28.242 125.771 26.9364L123.901 26.2277C123.458 27.396 122.915 28.4434 122.274 29.3744L123.921 30.5084ZM125.772 26.9332C126.262 25.6281 126.539 24.4526 126.539 23.4375H124.539C124.539 24.1151 124.348 25.0359 123.9 26.2309L125.772 26.9332ZM126.539 23.4375C126.539 22.8233 126.442 22.1874 126.101 21.6793C125.713 21.1004 125.112 20.8359 124.465 20.8359V22.8359C124.519 22.8359 124.518 22.8456 124.49 22.8315C124.477 22.825 124.464 22.8161 124.453 22.8065C124.442 22.7971 124.439 22.7911 124.44 22.7934C124.444 22.7998 124.471 22.8438 124.496 22.955C124.521 23.0659 124.539 23.2233 124.539 23.4375H126.539ZM124.465 20.8359C123.526 20.8359 122.583 21.3237 121.686 22.0158C120.764 22.727 119.753 23.7609 118.656 25.0844L120.196 26.3609C121.247 25.0933 122.15 24.1838 122.908 23.5994C123.69 22.996 124.193 22.8359 124.465 22.8359V20.8359ZM118.656 25.0844C116.447 27.748 114.554 30.7914 112.971 34.2087L114.786 35.0491C116.303 31.7737 118.107 28.8796 120.196 26.3609L118.656 25.0844ZM112.975 34.2008L112.799 34.5719L114.607 35.4281L114.783 35.057L112.975 34.2008ZM113.703 34H113.02V36H113.703V34ZM113.987 35.2545L114.182 34.5123L112.248 34.0033L112.052 34.7455L113.987 35.2545ZM114.177 34.5313C115.662 29.3078 116.441 25.4195 116.441 22.9492H114.441C114.441 25.1143 113.737 28.7651 112.253 33.9844L114.177 34.5313ZM116.441 22.9492C116.441 22.4625 116.368 21.9245 116.079 21.4809C115.742 20.963 115.209 20.7188 114.641 20.7188V22.7188C114.645 22.7188 114.6 22.719 114.535 22.6857C114.466 22.6505 114.423 22.6023 114.403 22.5718C114.388 22.5481 114.399 22.5554 114.414 22.6229C114.429 22.6898 114.441 22.7953 114.441 22.9492H116.441ZM114.641 20.7188C114.236 20.7188 113.801 20.8418 113.388 20.9986L114.097 22.8686C114.439 22.7389 114.602 22.7188 114.641 22.7188V20.7188ZM113.371 21.0051C113.333 21.0204 113.263 21.0458 113.153 21.0826L113.785 22.9799C113.909 22.9386 114.022 22.8988 114.114 22.8621L113.371 21.0051ZM114.427 21.7439L114.251 21.158L112.335 21.7327L112.511 22.3186L114.427 21.7439ZM113.74 22.3397C113.878 22.2707 114.039 22.1891 114.141 22.1211L113.031 20.457C113.049 20.4452 113.058 20.4404 113.05 20.4452C113.043 20.4487 113.032 20.4552 113.013 20.4653C112.975 20.4856 112.92 20.5138 112.846 20.5509L113.74 22.3397ZM114.025 22.1873L115.861 21.2888L114.982 19.4924L113.146 20.3908L114.025 22.1873ZM115.905 21.2661L117.78 20.2309L116.814 18.48L114.939 19.5152L115.905 21.2661ZM117.852 20.1875C117.849 20.1891 117.865 20.1788 117.914 20.1495C117.958 20.1232 118.017 20.088 118.094 20.0435L117.086 18.3159C116.939 18.4018 116.812 18.4771 116.742 18.5234L117.852 20.1875ZM128.195 34.5898L127.488 33.8827L127.48 33.8914L127.471 33.9002L128.195 34.5898ZM127.707 33.7734C127.776 33.7734 127.796 33.7825 127.784 33.7783C127.766 33.7725 127.721 33.7524 127.674 33.7052C127.626 33.6579 127.606 33.6124 127.601 33.595C127.596 33.5825 127.605 33.6025 127.605 33.6719H129.605C129.605 33.2183 129.491 32.6944 129.088 32.2909C128.685 31.8875 128.161 31.7734 127.707 31.7734V33.7734ZM127.605 33.6719C127.605 33.7068 127.603 33.7678 127.488 33.8827L128.902 35.297C129.334 34.865 129.605 34.314 129.605 33.6719H127.605ZM127.471 33.9002C127.375 34.0007 127.329 34 127.297 34V36C127.942 36 128.494 35.7259 128.919 35.2795L127.471 33.9002ZM127.297 34C127.222 34 127.197 33.9905 127.205 33.9932C127.218 33.9973 127.261 34.015 127.308 34.0607C127.33 34.0822 127.347 34.1049 127.361 34.1264C127.373 34.1475 127.38 34.164 127.383 34.1722C127.388 34.1869 127.379 34.1691 127.379 34.1016H125.379C125.379 34.5607 125.498 35.0875 125.909 35.4901C126.316 35.8887 126.842 36 127.297 36V34ZM127.379 34.1016C127.379 34.0289 127.394 33.9735 127.477 33.8907L126.062 32.4765C125.624 32.9145 125.379 33.4711 125.379 34.1016H127.379ZM127.477 33.8907C127.583 33.7842 127.648 33.7734 127.707 33.7734V31.7734C127.062 31.7734 126.503 32.0361 126.062 32.4765L127.477 33.8907Z" fill="black"/>
</g>
</svg>
